<svg width="372" height="137" viewBox="0 0 372 137" fill="none" xmlns="http://www.w3.org/2000/svg">
  <path d="M371.621 120.449L121.257 120.449L121.257 127.576L371.621 127.576V120.449Z" fill="#B2B2B2" />
  <path
    d="M202.863 0.299896L202.863 16.7502L154.395 16.7502L154.395 0.299896L0.700073 0.299896L0.700073 56.8981L287.926 56.8981L287.926 0.299896L202.863 0.299896Z"
    fill="#9FF1FF" />
  <path d="M296.336 127.576L228.094 127.576L228.094 136.583L296.336 136.583V127.576Z" fill="#2B2B2B" />
  <path
    d="M202.957 64.0271L202.957 80.3511L36.377 80.3511L36.377 64.0271L0.700073 64.0271L0.700073 120.449L371.621 120.449L371.621 64.0271L202.957 64.0271Z"
    fill="#9FF1FF" />
  <path
    d="M0.780762 0.299896L20.6042 0.299896L30.3925 49.6332L31.8618 49.6332L41.653 0.299896L61.4765 0.299896L61.4765 56.8952L51.1063 56.8952L51.1063 8.14917L49.6371 8.14917L39.9398 56.8952L22.3086 56.8952L12.6113 8.14917L11.1421 8.14917L11.1421 56.8952L0.780762 56.8952L0.780762 0.299896ZM65.7991 37.4908V36.1987C65.7991 23.2781 74.8616 15.6607 86.8361 15.6607C98.8107 15.6607 107.873 23.2634 107.873 36.1987V37.4908C107.873 50.429 98.8107 58.0287 86.8361 58.0287C74.8616 58.0287 65.7991 50.4349 65.7991 37.4908ZM97.6794 37.2499V36.4424C97.6794 28.922 93.1481 24.717 86.8361 24.717C80.5241 24.717 75.9958 28.922 75.9958 36.4424V37.2499C75.9958 44.7703 80.6064 48.9725 86.8361 48.9725C93.0659 48.9725 97.6794 44.7703 97.6794 37.2499V37.2499ZM112.163 37.4908V36.1987C112.163 23.1019 120.577 15.6607 130.286 15.6607C137.57 15.6607 141.049 18.5738 142.748 21.4016H144.202L144.202 0.299896L154.399 0.299896L154.399 56.8952L144.364 56.8952V52.0441L142.895 52.0441C141.035 55.1157 137.555 58.0257 130.259 58.0257C120.659 58.0287 112.163 50.5905 112.163 37.4908ZM144.364 37.2499V36.4424C144.364 28.6783 139.662 24.5554 133.362 24.5554C127.062 24.5554 122.357 28.6665 122.357 36.4424V37.2499C122.357 45.0111 127.132 49.1369 133.362 49.1369C139.592 49.1369 144.364 45.0111 144.364 37.2499V37.2499ZM159.089 40.7268L159.089 16.7942L169.286 16.7942L169.286 39.9192C169.286 45.9831 172.36 48.9725 177.861 48.9725C184.093 48.9725 187.734 44.6088 187.734 37.1677L187.734 16.7942L197.928 16.7942L197.928 56.8952L187.896 56.8952V51.6388H186.426C185.134 54.3874 181.895 57.5412 174.696 57.5412C165.31 57.5441 159.089 50.6727 159.089 40.7268ZM202.874 0.299896L213.067 0.299896L213.067 56.8952L202.865 56.8952L202.874 0.299896ZM217.184 45.1726C217.184 36.9269 223.649 32.6426 232.72 32.6426L243.725 32.6426V30.3756C243.725 26.658 241.46 23.9153 236.279 23.9153C231.184 23.9153 228.933 26.5023 228.189 30.1407L218.792 26.981C220.734 20.9171 225.991 15.6607 236.423 15.6607C246.943 15.6607 253.578 21.0786 253.578 31.1039L253.578 46.0624C253.578 47.6804 254.386 48.488 255.844 48.488H259.076L259.076 56.8952L252.291 56.8952C248.327 56.8952 245.415 54.7926 245.415 51.5595V51.4773H243.878C243.149 53.4977 240.646 58.0257 232.227 58.0257C223.649 58.0287 217.175 53.4213 217.175 45.1726H217.184ZM243.725 41.0615V40.254L233.44 40.254C229.638 40.254 227.372 41.9513 227.372 44.8614C227.372 47.7715 229.638 49.7947 234.005 49.7947C239.67 49.7829 243.716 46.3854 243.716 41.038L243.725 41.0615ZM263.546 16.806L273.581 16.806L273.581 21.3341H275.035C276.17 18.1039 279.082 16.6357 282.802 16.6357L287.659 16.6357L287.659 25.6919L282.64 25.6919C277.463 25.6919 273.742 28.4404 273.742 34.0991L273.742 56.8952L263.546 56.8952L263.546 16.806ZM0.780762 63.8517L37.1894 63.8517L37.1894 73.5422L11.4594 73.5422L11.4594 87.0502L34.9238 87.0502L34.9238 96.7406L11.4594 96.7406L11.4594 110.73L37.6772 110.73L37.6772 120.421L0.780762 120.421L0.780762 63.8517ZM36.3813 80.3461L47.2216 80.3461L56.528 113.012H57.9972L67.3036 80.3461L78.1439 80.3461L65.3612 120.45L49.164 120.45L36.3813 80.3461ZM77.28 100.881V99.9121C77.28 87.2851 85.3727 79.2126 97.3473 79.2126C109.16 79.2126 116.848 87.6228 116.848 99.9121V103.389L87.6384 103.389C87.8793 108.886 92.1667 112.689 97.8322 112.689C103.498 112.689 105.843 109.776 107.218 106.704L115.552 111.071C113.286 115.355 108.499 121.581 97.509 121.581C85.4521 121.581 77.28 113.496 77.28 100.881V100.881ZM106.489 95.7892C106.004 91.1789 102.525 88.1073 97.265 88.1073C91.7641 88.1073 88.4494 91.1789 87.7177 95.7892L106.489 95.7892ZM121.241 80.3461L131.273 80.3461V84.8742H132.742C133.876 81.6441 136.789 80.1758 140.512 80.1758H145.366V89.232H140.332C135.155 89.232 131.432 91.9806 131.432 97.6392L131.432 120.441L121.232 120.441L121.241 80.3461ZM154.332 127.727L176.183 127.727C177.652 127.727 178.448 126.919 178.448 125.301L178.448 115.194H176.979C175.683 117.942 172.448 121.096 165.245 121.096C155.86 121.096 149.63 114.225 149.63 104.279L149.63 80.3461L159.827 80.3461L159.827 103.471C159.827 109.535 162.9 112.524 168.401 112.524C174.631 112.524 178.272 108.161 178.272 100.72L178.272 80.3461L188.469 80.3461L188.469 127.565C188.469 133.062 184.907 136.621 179.568 136.621L154.332 136.621V127.727ZM202.959 111.394L202.959 88.7533L192.932 88.7533V80.3461L202.965 80.3461L202.965 67.8924L213.161 67.8924L213.161 80.3461L224.163 80.3461V88.7533L213.161 88.7533L213.161 109.603C213.161 111.221 213.97 112.028 215.427 112.028L223.199 112.028V120.438L211.871 120.438C206.52 120.45 202.959 116.891 202.959 111.394V111.394ZM227.798 63.8517L237.995 63.8517L237.995 85.2882H239.464C240.76 82.7012 243.916 79.7089 251.036 79.7089C260.422 79.7089 266.652 86.5803 266.652 96.5263L266.652 120.459L256.458 120.459L256.458 97.3338C256.458 91.2699 253.381 88.2776 247.88 88.2776C241.651 88.2776 238.01 92.6442 238.01 100.082L238.01 120.459L227.813 120.459L227.798 63.8517ZM269.629 69.1874C269.629 65.3053 272.458 62.7271 276.182 62.7271C279.905 62.7271 282.734 65.3141 282.734 69.1874C282.734 73.0606 279.905 75.6477 276.182 75.6477C272.458 75.6477 269.629 73.0695 269.629 69.1874ZM271.098 80.3461L281.295 80.3461L281.295 120.45L271.098 120.45L271.098 80.3461ZM286.228 80.3461L296.261 80.3461L296.261 85.5995H297.73C299.026 82.851 302.261 79.7001 309.464 79.7001C318.849 79.7001 325.079 86.5715 325.079 96.5175L325.079 120.45L314.882 120.45L314.882 97.325C314.882 91.2611 311.808 88.2688 306.307 88.2688C300.078 88.2688 296.434 92.6354 296.434 100.074L296.434 120.45L286.24 120.45L286.228 80.3461ZM329.313 99.266C329.313 86.6391 337.647 79.2126 347.6 79.2126C354.882 79.2126 358.282 82.4428 360.059 85.1972L361.529 85.1972L361.529 80.3461L371.561 80.3461L371.561 127.565C371.561 133.062 368.002 136.621 362.66 136.621L335.775 136.621V127.727L359.078 127.727C360.547 127.727 361.344 126.919 361.344 125.301L361.344 114.871L359.874 114.871C358.258 117.54 354.94 120.611 347.576 120.611C337.706 120.611 329.29 113.173 329.29 100.558L329.313 99.266ZM361.517 100.317V99.5068C361.517 92.2302 356.815 88.1073 350.512 88.1073C344.209 88.1073 339.51 92.2184 339.51 99.5068V100.317C339.51 107.594 344.282 111.717 350.512 111.717C356.742 111.717 361.505 107.594 361.505 100.317H361.517Z"
    fill="#2B2B2B" />
</svg>